<?xml version="1.0" encoding="UTF-8" standalone="no"?>
<!-- Created with Inkscape (http://www.inkscape.org/) -->

<svg
   width="100"
   height="100"
   viewBox="0 0 26.458333 26.458333"
   version="1.1"
   id="svg5"
   xml:space="preserve"
   inkscape:version="1.2.2 (b0a84865, 2022-12-01)"
   sodipodi:docname="Logo-Inkscape2.svg"
   inkscape:export-filename="Logo.svg"
   inkscape:export-xdpi="123.30412"
   inkscape:export-ydpi="123.30412"
   xmlns:inkscape="http://www.inkscape.org/namespaces/inkscape"
   xmlns:sodipodi="http://sodipodi.sourceforge.net/DTD/sodipodi-0.dtd"
   xmlns="http://www.w3.org/2000/svg"
   xmlns:svg="http://www.w3.org/2000/svg"><sodipodi:namedview
     id="namedview7"
     pagecolor="#ffffff"
     bordercolor="#000000"
     borderopacity="0.25"
     inkscape:showpageshadow="2"
     inkscape:pageopacity="0.0"
     inkscape:pagecheckerboard="0"
     inkscape:deskcolor="#d1d1d1"
     inkscape:document-units="mm"
     showgrid="false"
     inkscape:zoom="3.1251122"
     inkscape:cx="44.958385"
     inkscape:cy="64.477684"
     inkscape:window-width="1390"
     inkscape:window-height="1027"
     inkscape:window-x="2037"
     inkscape:window-y="25"
     inkscape:window-maximized="0"
     inkscape:current-layer="layer1" /><defs
     id="defs2" /><g
     inkscape:label="Layer 1"
     inkscape:groupmode="layer"
     id="layer1"><path
       style="fill:#000000;stroke-width:0.0299295"
       d="m 0.26659452,23.293689 c -0.00967,-0.02532 -0.0134396,-0.111636 -0.00836,-0.191854 l 0.009258,-0.145842 0.38584789,-0.02008 C 1.9502138,22.868311 2.2926625,22.592698 2.5992756,21.369777 2.659261,21.130393 5.3572457,5.8938418 5.4345789,5.3575307 5.5658174,4.4473936 5.4296624,3.9503107 5.0023327,3.7748374 4.8143297,3.6977252 4.452361,3.6348882 4.0855089,3.6157126 3.8873936,3.6053873 3.7299077,3.5835894 3.7173207,3.5647415 3.6788875,3.5072147 3.6923268,3.2864902 3.7365783,3.2498189 c 0.032041,-0.026551 0.2744735,-0.027042 1.0101209,-0.00164 1.9281986,0.065394 2.9855363,0.070803 3.6017783,0.018356 0.6668853,-0.05679 2.4343775,-0.1382119 2.9929455,-0.1378513 2.311063,0.00164 4.283619,0.7827257 5.190397,2.0557081 0.479865,0.6736626 0.695198,1.4098263 0.698616,2.3884377 0.0033,0.9043518 -0.12674,1.6205694 -0.447826,2.4691806 -0.326231,0.862173 -0.799745,1.596878 -1.473129,2.285659 -1.000607,1.023511 -2.055184,1.676351 -3.42933,2.122946 C 10.913708,14.76471 10.142012,14.890712 9.1866898,14.8904 8.670612,14.890155 8.2358742,14.84713 7.9630314,14.769168 l -0.1160775,-0.03319 0.0145,-0.20327 c 0.017618,-0.245833 0.1010075,-0.437294 0.1876834,-0.430771 0.032947,0.0024 0.1608699,0.02828 0.2843314,0.05736 0.3054166,0.07195 1.0161766,0.07301 1.4066792,0.0016 1.2525371,-0.22737 2.3868161,-1.051872 3.0492671,-2.216512 0.44004,-0.773606 0.729264,-1.778965 0.870336,-3.0252978 C 13.873981,7.0264073 13.503006,5.5930219 12.555469,4.6523842 12.283953,4.3828602 12.033884,4.2076737 11.704087,4.0559979 11.25169,3.847926 10.818117,3.7770664 10.247536,3.817958 9.7150349,3.8561453 9.3696778,3.977132 9.1412175,4.2056005 8.936038,4.4107714 8.718198,4.9158768 8.5734148,5.5221378 8.4935977,5.8564904 5.8648009,20.815725 5.8053565,21.27403 c -0.098222,0.757256 -0.032127,1.121126 0.2500045,1.376006 0.1903633,0.171982 0.6940261,0.291027 1.2312958,0.291027 0.1131776,0 0.2120788,0.01524 0.2327382,0.03589 0.041626,0.04163 0.04736,0.258756 0.0084,0.320273 -0.022695,0.03589 -0.28334,0.03631 -1.8134725,0.0024 -1.6756373,-0.0368 -2.3059578,-0.03409 -4.5855045,0.01983 -0.7443582,0.01762 -0.84670185,0.0145 -0.86226359,-0.02605 z M 16.115528,23.166582 c -0.03868,-0.101803 -0.03852,-0.184316 7.38e-4,-0.257453 0.02459,-0.04589 0.06342,-0.05794 0.187053,-0.05794 0.08585,-1.6e-5 0.304228,-0.01402 0.485299,-0.03114 1.116422,-0.105482 1.395263,-0.375047 1.671851,-1.616201 0.04204,-0.188626 0.58888,-3.804287 1.215234,-8.034813 0.626346,-4.2305263 1.144703,-7.7173746 1.151906,-7.7485473 0.0073,-0.031632 0.0016,-0.044825 -0.01221,-0.02991 -0.01393,0.014751 -1.97844,3.9998934 -4.365607,8.8559373 -4.21494,8.574165 -4.343269,8.830332 -4.442884,8.868912 -0.146849,0.05687 -0.302155,-0.0098 -0.346907,-0.149069 -0.0645,-0.200689 -1.621642,-7.691087 -1.604582,-7.718695 0.0097,-0.01565 0.06056,-0.02852 0.11308,-0.0286 0.05252,-9e-5 0.227657,-0.02008 0.389175,-0.04442 0.669958,-0.100984 1.38012,-0.298034 2.125019,-0.589626 0.210915,-0.08257 0.387724,-0.145358 0.392895,-0.139539 0.0049,0.0057 0.173269,0.79174 0.373532,1.746489 0.200253,0.954749 0.374153,1.760976 0.386437,1.791617 0.01639,0.04097 0.945137,-1.841245 3.507352,-7.108237 l 3.485019,-7.1639552 0.18538,-0.1875768 c 0.124863,-0.1263298 0.252086,-0.2191676 0.389666,-0.2843237 l 0.204278,-0.096755 0.463903,0.00328 c 0.764919,0.00573 3.246719,0.00655 3.696288,0.00164 l 0.419004,-0.00491 0.0096,0.1168647 c 0.01975,0.2409572 0.01344,0.245997 -0.330738,0.2662543 -0.572344,0.03368 -1.018348,0.2001311 -1.294666,0.4831518 -0.244489,0.2504221 -0.446325,0.7306811 -0.566746,1.3485048 -0.02565,0.1316889 -0.537991,3.5526192 -1.138507,7.6020741 -0.600509,4.049448 -1.120881,7.551194 -1.156372,7.781646 -0.08355,0.542489 -0.09154,1.155814 -0.01819,1.397214 0.143014,0.470778 0.48071,0.642949 1.383021,0.705097 l 0.329222,0.0227 v 0.17957 0.17958 l -0.927813,-0.01491 c -1.44517,-0.02328 -4.361896,-0.01762 -5.394363,0.01049 l -0.934885,0.02549 -0.03032,-0.07982 z M 9.7102169,13.734415 c 0,-0.01 -0.2692866,-1.302795 -0.5984098,-2.87277 L 8.513396,8.0071424 8.6928441,6.9816073 C 8.9428235,5.552917 9.0820193,5.0363882 9.3282285,4.6238338 9.4030432,4.4985449 9.4638014,4.4394529 9.5846739,4.3746082 9.8184359,4.2491963 10.259205,4.1662167 10.601482,4.183188 c 0.152741,0.00738 0.284987,0.02106 0.293895,0.029993 0.03311,0.033107 0.117667,0.420323 0.849742,3.8922568 l 0.749054,3.5524632 -0.122527,0.20168 c -0.353095,0.581201 -0.681121,0.929411 -1.202919,1.2769 -0.381873,0.254305 -0.733983,0.426271 -1.103851,0.539087 -0.2514961,0.07671 -0.3546591,0.09384 -0.3546591,0.05893 z"
       id="path225"
       inkscape:export-filename="Logo.svg"
       inkscape:export-xdpi="96"
       inkscape:export-ydpi="96" /></g></svg>
